<svg width="24" height="18" viewBox="0 0 24 18" fill="none" xmlns="http://www.w3.org/2000/svg">
<path d="M22.5 0.25H1.5C1.26794 0.25 1.04538 0.342187 0.881282 0.506282C0.717187 0.670376 0.625 0.892936 0.625 1.125V16C0.625 16.4641 0.809374 16.9092 1.13756 17.2374C1.46575 17.5656 1.91087 17.75 2.375 17.75H21.625C22.0891 17.75 22.5342 17.5656 22.8624 17.2374C23.1906 16.9092 23.375 16.4641 23.375 16V1.125C23.375 0.892936 23.2828 0.670376 23.1187 0.506282C22.9546 0.342187 22.7321 0.25 22.5 0.25ZM20.2502 2L12 9.56328L3.74984 2H20.2502ZM21.625 16H2.375V3.11453L11.4083 11.3953C11.5697 11.5435 11.7809 11.6257 12 11.6257C12.2191 11.6257 12.4303 11.5435 12.5917 11.3953L21.625 3.11453V16Z" fill="#878EA1"/>
</svg>
