<svg width="24" height="25" viewBox="0 0 24 25" fill="none" xmlns="http://www.w3.org/2000/svg">
<path d="M22.7839 6.27751C23.0514 5.41476 23.1372 4.50595 23.0359 3.60838C22.9346 2.71082 22.6484 1.84398 22.1955 1.06251C22.1187 0.929469 22.0082 0.818992 21.8751 0.742193C21.7421 0.665394 21.5911 0.62498 21.4375 0.625014C20.4183 0.622881 19.4128 0.859147 18.5012 1.31493C17.5896 1.77072 16.7973 2.4334 16.1875 3.25001H13.5625C12.9527 2.4334 12.1604 1.77072 11.2488 1.31493C10.3372 0.859147 9.33167 0.622881 8.3125 0.625014C8.15887 0.62498 8.00794 0.665394 7.87489 0.742193C7.74183 0.818992 7.63135 0.929469 7.55453 1.06251C7.10155 1.84398 6.8154 2.71082 6.71413 3.60838C6.61285 4.50595 6.69864 5.41476 6.96609 6.27751C6.42548 7.22111 6.13589 8.28758 6.125 9.37501V10.25C6.12684 11.7305 6.6643 13.1604 7.63812 14.2755C8.61194 15.3907 9.95636 16.1158 11.4231 16.317C10.8244 17.0832 10.4994 18.0277 10.5 19V19.875H7.875C7.17881 19.875 6.51113 19.5985 6.01884 19.1062C5.52656 18.6139 5.25 17.9462 5.25 17.25C5.25 16.6755 5.13684 16.1066 4.91697 15.5758C4.69711 15.045 4.37485 14.5627 3.96859 14.1564C3.56234 13.7502 3.08004 13.4279 2.54924 13.208C2.01844 12.9882 1.44953 12.875 0.875 12.875C0.642936 12.875 0.420376 12.9672 0.256282 13.1313C0.0921873 13.2954 0 13.5179 0 13.75C0 13.9821 0.0921873 14.2046 0.256282 14.3687C0.420376 14.5328 0.642936 14.625 0.875 14.625C1.57119 14.625 2.23887 14.9016 2.73116 15.3939C3.22344 15.8861 3.5 16.5538 3.5 17.25C3.5 18.4103 3.96094 19.5231 4.78141 20.3436C5.60188 21.1641 6.71468 21.625 7.875 21.625H10.5V23.375C10.5 23.6071 10.5922 23.8296 10.7563 23.9937C10.9204 24.1578 11.1429 24.25 11.375 24.25C11.6071 24.25 11.8296 24.1578 11.9937 23.9937C12.1578 23.8296 12.25 23.6071 12.25 23.375V19C12.25 18.3038 12.5266 17.6361 13.0188 17.1439C13.5111 16.6516 14.1788 16.375 14.875 16.375C15.5712 16.375 16.2389 16.6516 16.7312 17.1439C17.2234 17.6361 17.5 18.3038 17.5 19V23.375C17.5 23.6071 17.5922 23.8296 17.7563 23.9937C17.9204 24.1578 18.1429 24.25 18.375 24.25C18.6071 24.25 18.8296 24.1578 18.9937 23.9937C19.1578 23.8296 19.25 23.6071 19.25 23.375V19C19.2506 18.0277 18.9256 17.0832 18.3269 16.317C19.7936 16.1158 21.1381 15.3907 22.1119 14.2755C23.0857 13.1604 23.6232 11.7305 23.625 10.25V9.37501C23.6141 8.28758 23.3245 7.22111 22.7839 6.27751ZM21.875 10.25C21.875 11.4103 21.4141 12.5231 20.5936 13.3436C19.7731 14.1641 18.6603 14.625 17.5 14.625H12.25C11.0897 14.625 9.97688 14.1641 9.15641 13.3436C8.33594 12.5231 7.875 11.4103 7.875 10.25V9.37501C7.88573 8.50004 8.14769 7.64658 8.62969 6.91626C8.71954 6.79783 8.77774 6.65846 8.79879 6.5113C8.81984 6.36414 8.80305 6.21404 8.75 6.07517C8.52209 5.48739 8.4124 4.8604 8.42723 4.23015C8.44206 3.5999 8.5811 2.97877 8.83641 2.40236C9.5525 2.47939 10.2421 2.71661 10.854 3.09642C11.466 3.47623 11.9846 3.9889 12.3714 4.59642C12.4502 4.71969 12.5587 4.82123 12.6869 4.89173C12.8151 4.96224 12.959 4.99947 13.1053 5.00001H16.6436C16.7905 5.00002 16.935 4.96305 17.0638 4.89252C17.1926 4.82199 17.3017 4.72016 17.3808 4.59642C17.7676 3.98885 18.2862 3.47614 18.8981 3.09632C19.5101 2.7165 20.1997 2.47932 20.9158 2.40236C21.1707 2.97892 21.3094 3.60012 21.3239 4.23037C21.3383 4.86062 21.2283 5.48753 21 6.07517C20.9471 6.21272 20.9294 6.36129 20.9485 6.50741C20.9676 6.65353 21.0229 6.79256 21.1094 6.91189C21.5962 7.64221 21.862 8.49743 21.875 9.37501V10.25Z" fill="#878EA1"/>
</svg>
