<svg width="62" height="42" viewBox="0 0 62 42" fill="none" xmlns="http://www.w3.org/2000/svg">
<path d="M16.728 41.768C14.552 41.768 12.504 41.3627 10.584 40.552C8.664 39.7413 6.95733 38.504 5.464 36.84C3.97067 35.176 2.79733 33.064 1.944 30.504C1.13333 27.9013 0.728 24.8293 0.728 21.288C0.728 18.1733 1.048 15.4427 1.688 13.096C2.37067 10.7493 3.26667 8.78667 4.376 7.208C5.48533 5.58666 6.744 4.28533 8.152 3.304C9.56 2.28 11.032 1.55466 12.568 1.128C14.104 0.658666 15.6187 0.424 17.112 0.424C20.184 0.424 22.7867 1.10667 24.92 2.472C27.096 3.79466 28.76 5.71466 29.912 8.232L25.176 12.136L24.728 12.52L24.28 12.008C24.3227 11.6667 24.3013 11.3467 24.216 11.048C24.1307 10.7067 23.896 10.2587 23.512 9.704C22.6587 8.63733 21.7413 7.93333 20.76 7.592C19.7787 7.25067 18.776 7.08 17.752 7.08C16.6427 7.08 15.5547 7.37866 14.488 7.976C13.464 8.53067 12.5253 9.384 11.672 10.536C10.8187 11.688 10.136 13.1387 9.624 14.888C9.112 16.5947 8.856 18.6213 8.856 20.968C8.856 23.2293 9.048 25.2347 9.432 26.984C9.85867 28.6907 10.4347 30.1627 11.16 31.4C11.8853 32.5947 12.7387 33.512 13.72 34.152C14.744 34.7493 15.8533 35.048 17.048 35.048C18.072 35.048 18.9893 34.92 19.8 34.664C20.6107 34.408 21.3573 33.9813 22.04 33.384C22.7227 32.744 23.3627 31.8907 23.96 30.824L29.592 34.984C28.0133 37.5013 26.1787 39.272 24.088 40.296C21.9973 41.2773 19.544 41.768 16.728 41.768ZM33.176 41V1.128H45.592C48.024 1.128 50.1147 1.384 51.864 1.896C53.656 2.36533 55.1493 3.048 56.344 3.944C57.5387 4.84 58.4347 5.928 59.032 7.208C59.6293 8.44533 59.928 9.81067 59.928 11.304C59.928 12.3707 59.7147 13.48 59.288 14.632C58.8613 15.784 58.2213 16.8293 57.368 17.768C56.5573 18.664 55.5547 19.368 54.36 19.88C55.4267 20.3493 56.3867 20.9253 57.24 21.608C58.136 22.2907 58.904 23.0587 59.544 23.912C60.184 24.7227 60.6533 25.5973 60.952 26.536C61.2933 27.432 61.464 28.392 61.464 29.416C61.464 31.1227 61.1227 32.7013 60.44 34.152C59.8 35.6027 58.7973 36.84 57.432 37.864C56.1093 38.8453 54.4667 39.6133 52.504 40.168C50.5413 40.7227 48.216 41 45.528 41H33.176ZM41.304 34.344H46.232C47.6827 34.344 48.8987 34.1307 49.88 33.704C50.904 33.2773 51.672 32.68 52.184 31.912C52.7387 31.144 53.016 30.2267 53.016 29.16C53.016 28.008 52.76 27.0053 52.248 26.152C51.7787 25.256 50.968 24.5733 49.816 24.104C48.664 23.592 47.128 23.336 45.208 23.336H41.304V34.344ZM41.304 16.872H45.016C46.7653 16.872 48.1093 16.68 49.048 16.296C50.0293 15.8693 50.712 15.2933 51.096 14.568C51.5227 13.8427 51.736 12.9893 51.736 12.008C51.736 11.3253 51.608 10.728 51.352 10.216C51.1387 9.66133 50.776 9.21333 50.264 8.872C49.752 8.488 49.112 8.18933 48.344 7.976C47.576 7.76266 46.68 7.656 45.656 7.656H41.304V16.872Z" fill="url(#paint0_linear_6133_253)"/>
<defs>
<linearGradient id="paint0_linear_6133_253" x1="31" y1="-14" x2="31" y2="53" gradientUnits="userSpaceOnUse">
<stop offset="0.255" stop-color="#64E364"/>
<stop offset="1" stop-color="#377D37"/>
</linearGradient>
</defs>
</svg>
