<svg width="24" height="24" viewBox="0 0 24 24" fill="none" xmlns="http://www.w3.org/2000/svg">
<path d="M23.0612 10.9388C23.201 11.0781 23.312 11.2437 23.3877 11.426C23.4634 11.6084 23.5024 11.8038 23.5024 12.0013C23.5024 12.1987 23.4634 12.3942 23.3877 12.5765C23.312 12.7588 23.201 12.9244 23.0612 13.0638L13.0612 23.0638C12.9218 23.2036 12.7563 23.3146 12.5739 23.3903C12.3916 23.466 12.1961 23.5049 11.9987 23.5049C11.8013 23.5049 11.6058 23.466 11.4235 23.3903C11.2411 23.3146 11.0756 23.2036 10.9362 23.0638L0.936196 13.0638C0.796666 12.9242 0.685986 12.7586 0.610473 12.5763C0.53496 12.394 0.496094 12.1986 0.496094 12.0013C0.496094 11.8039 0.53496 11.6085 0.610473 11.4262C0.685985 11.2439 0.796666 11.0783 0.936196 10.9388C1.07573 10.7992 1.24137 10.6885 1.42367 10.613C1.60598 10.5375 1.80137 10.4987 1.9987 10.4987C2.19602 10.4987 2.39141 10.5375 2.57372 10.613C2.75602 10.6885 2.92167 10.7992 3.0612 10.9388L11.9999 19.875L20.9387 10.935C21.0782 10.7958 21.2439 10.6854 21.4261 10.6103C21.6083 10.5351 21.8036 10.4966 22.0007 10.497C22.1978 10.4973 22.393 10.5365 22.5749 10.6123C22.7569 10.6881 22.9221 10.799 23.0612 10.9388ZM10.9362 13.0638C11.0756 13.2036 11.2411 13.3146 11.4235 13.3903C11.6058 13.466 11.8013 13.5049 11.9987 13.5049C12.1961 13.5049 12.3916 13.466 12.5739 13.3903C12.7563 13.3146 12.9218 13.2036 13.0612 13.0638L23.0612 3.06376C23.2007 2.92423 23.3114 2.75858 23.3869 2.57628C23.4624 2.39398 23.5013 2.19858 23.5013 2.00126C23.5013 1.80393 23.4624 1.60854 23.3869 1.42624C23.3114 1.24393 23.2007 1.07829 23.0612 0.938759C22.9217 0.799229 22.756 0.688548 22.5737 0.613036C22.3914 0.537523 22.196 0.498657 21.9987 0.498657C21.8014 0.498657 21.606 0.537523 21.4237 0.613036C21.2414 0.688548 21.0757 0.799229 20.9362 0.938759L11.9999 9.87501L3.0612 0.938759C2.7794 0.656966 2.39721 0.498657 1.9987 0.498657C1.60018 0.498657 1.21799 0.656966 0.936196 0.938759C0.654403 1.22055 0.496094 1.60274 0.496094 2.00126C0.496094 2.39977 0.654403 2.78197 0.936196 3.06376L10.9362 13.0638Z" fill="#878EA1"/>
</svg>
